<svg width="207" height="288" viewBox="0 0 207 288" fill="none" xmlns="http://www.w3.org/2000/svg">
<g clip-path="url(#clip0_85_155)">
<path d="M115.199 77.3683V76.8556C114.939 55.5282 120.244 39.8104 121.866 35.5105C121.916 35.3789 121.933 35.2371 121.916 35.0974C121.899 34.9577 121.849 34.8242 121.769 34.7084C121.689 34.5926 121.582 34.4979 121.458 34.4325C121.334 34.3672 121.196 34.333 121.055 34.333L114.533 35.7685C107.266 37.3627 99.7405 37.3627 92.4731 35.7685L85.9508 34.333C85.8104 34.333 85.6722 34.3672 85.5479 34.4325C85.4237 34.4979 85.3171 34.5926 85.2373 34.7084C85.1575 34.8242 85.107 34.9577 85.09 35.0974C85.0729 35.2371 85.09 35.3789 85.1396 35.5105C86.7619 39.8104 92.0642 55.5248 91.807 76.8556V77.3848C68.3721 77.7156 55.9935 73.0849 52.2674 71.3782C52.1352 71.3178 51.9899 71.2917 51.8449 71.3023C51.7 71.3129 51.56 71.3599 51.4378 71.4389C51.3157 71.5179 51.2154 71.6265 51.146 71.7546C51.0766 71.8827 51.0404 72.0262 51.0408 72.172L51.9509 77.0144C53.4443 84.9578 53.4185 93.1136 51.875 101.047L51.0342 105.301C51.0338 105.447 51.07 105.59 51.1394 105.718C51.2088 105.847 51.3091 105.955 51.4313 106.034C51.5534 106.113 51.6934 106.16 51.8383 106.171C51.9833 106.181 52.1285 106.155 52.2608 106.095C55.9375 104.421 68.0358 99.8832 90.8639 100.075C91.094 100.078 91.3134 100.173 91.4745 100.338C91.6356 100.502 91.7255 100.724 91.7246 100.955V100.955C91.6718 109.326 91.0651 169.479 84.3152 192.539C84.2766 192.669 84.2688 192.806 84.2924 192.939C84.316 193.072 84.3704 193.198 84.4511 193.306C84.5319 193.415 84.6368 193.502 84.7575 193.563C84.8782 193.623 85.0113 193.654 85.1462 193.654H121.853C121.988 193.654 122.121 193.623 122.242 193.563C122.363 193.502 122.468 193.414 122.549 193.306C122.63 193.198 122.685 193.072 122.709 192.939C122.733 192.806 122.725 192.669 122.688 192.539C115.944 169.479 115.331 109.326 115.275 100.955C115.274 100.723 115.364 100.501 115.526 100.336C115.688 100.172 115.908 100.078 116.139 100.075C138.964 99.8832 151.065 104.421 154.739 106.095C154.871 106.155 155.016 106.181 155.161 106.171C155.306 106.16 155.446 106.113 155.568 106.034C155.69 105.955 155.791 105.847 155.86 105.718C155.929 105.59 155.966 105.447 155.965 105.301L154.739 100.637C152.708 92.9043 152.694 84.7773 154.699 77.0375L155.965 72.1489C155.966 72.0031 155.929 71.8596 155.86 71.7314C155.791 71.6033 155.69 71.4948 155.568 71.4157C155.446 71.3367 155.306 71.2897 155.161 71.2791C155.016 71.2685 154.871 71.2946 154.739 71.3551C151.013 73.0585 138.634 77.6957 115.199 77.3683Z" fill="white"/>
<path d="M169.027 20.0049C169.027 20.0049 222.053 78.5661 166.857 138.672C146.96 160.333 131.809 158.848 131.809 158.848L131.835 168.083C131.835 168.083 149.123 169.935 169.39 150.007C200.897 119.031 217.054 64.5947 169.027 20.0049Z" fill="#C98E54"/>
<path d="M139.772 149.927C140.454 149.418 183.146 117.364 176.456 66.0365C170.372 19.4886 127.707 9.90312 109.106 8.60985C106.844 8.45108 104.941 8.4147 103.5 8.45108C102.046 8.4147 100.127 8.45108 97.8449 8.61315C79.2144 9.9362 36.6214 19.5283 30.5574 66.0365C23.8669 117.364 66.5687 149.418 67.2282 149.927C66.5027 149.458 15.7881 116.458 24.8924 61.5845C35.7739 -3.90614 103.487 0.0629902 103.487 0.0629902C103.487 0.0629902 171.213 -3.90614 182.081 61.601C191.212 116.458 140.487 149.458 139.772 149.927Z" fill="#C98E54"/>
<path d="M37.9728 20.0049C37.9728 20.0049 -15.0533 78.5661 40.1425 138.672C60.0392 160.333 75.1909 158.848 75.1909 158.848L75.1646 168.11C75.1646 168.11 57.8761 169.962 37.61 150.034C6.10302 119.031 -10.0544 64.5947 37.9728 20.0049Z" fill="#C98E54"/>
<path d="M38.8012 278.028H34.2144V287.6H30.8906V263.256H38.1714C43.0912 263.256 46.1182 266.524 46.1182 270.758C46.1248 274.627 42.7251 278.028 38.8012 278.028ZM37.6735 266.382H34.2144V274.885H37.8812C40.6741 274.885 42.6691 273.321 42.6691 270.552C42.6592 267.89 40.7632 266.382 37.6735 266.382Z" fill="white"/>
<path d="M66.6284 287.6L56.8219 276.228V287.6H53.498V263.256H61.3427C65.8667 263.256 68.8575 266.491 68.8575 270.423C68.8379 272.262 68.1029 274.02 66.8092 275.323C65.5156 276.625 63.7657 277.369 61.9329 277.396L70.8755 287.6H66.6284ZM60.7458 266.382H56.8219V274.753H60.6799C63.6707 274.753 65.3985 272.888 65.3985 270.285C65.3985 268.624 63.9048 266.382 60.7458 266.382Z" fill="white"/>
<path d="M88.5721 288C81.6244 288 76.1045 282.708 76.1045 275.362C76.1045 268.257 81.3804 262.853 88.4039 262.853C95.9188 262.853 100.974 268.356 100.974 275.421C100.994 277.067 100.688 278.701 100.073 280.227C99.459 281.753 98.5485 283.141 97.3947 284.312C96.2409 285.482 94.8669 286.411 93.3523 287.044C91.8378 287.677 90.2129 288.002 88.5721 288V288ZM88.4402 266.124C83.1841 266.124 79.5602 270.023 79.5602 275.362C79.5602 280.763 83.7842 284.732 88.5721 284.732C93.36 284.732 97.5148 281.13 97.5148 275.292C97.5148 270.02 93.792 266.124 88.4402 266.124V266.124Z" fill="white"/>
<path d="M116.565 287.6H114.504L105.96 263.256H109.185L115.335 280.829L115.536 281.63C115.581 281.358 115.647 281.091 115.734 280.829L121.92 263.256H125.079L116.565 287.6Z" fill="white"/>
<path d="M138.176 288.001C135.586 288.06 133.061 287.184 131.061 285.533L132.957 282.966C134.252 284.131 136.35 284.766 138.012 284.766C140.471 284.766 142.166 283.664 142.166 281.365C142.166 279.295 140.27 278.164 138.11 277.066C134.651 275.296 131.13 273.758 131.13 269.127C131.13 265.525 133.788 262.843 138.143 262.843C140.488 262.832 142.778 263.555 144.692 264.913L142.898 267.646C141.401 266.547 140.138 266.114 138.11 266.114C136.214 266.114 134.618 267.08 134.618 268.916C134.618 271.562 136.946 272.448 139.941 273.95C142.697 275.319 145.625 277.085 145.625 281.154C145.625 285.533 142.232 288.001 138.176 288.001Z" fill="white"/>
<path d="M159.886 266.381V287.593H156.562V266.381H151.616V263.249H165.047V266.381H159.886Z" fill="white"/>
<path d="M172.785 287.6V263.256H176.109V287.6H172.785Z" fill="white"/>
<path d="M20.698 247.829L7.31372 230.11C6.94111 229.571 6.60807 228.985 6.5652 228.903C6.5652 228.946 6.65093 229.693 6.65093 230.404V247.829H0V217.399H5.73425L19.1186 234.959C19.4171 235.344 19.6684 235.764 19.8671 236.209C19.8671 236.166 19.7813 235.415 19.7813 234.665V217.396H26.4323V247.826L20.698 247.829Z" fill="white"/>
<path d="M51.6151 247.829V239.951H43.1803L39.1047 247.829H32.457L48.166 217.399H68.6563V223.022H57.6429V230.15H67.8649V235.773H57.6429V242.203H69.2795V247.826L51.6151 247.829ZM51.6151 222.983L45.7556 234.53H51.6151V222.983Z" fill="white"/>
<path d="M85.1102 248.329C80.9126 248.329 77.8394 246.787 74.9277 244.535L78.3769 239.868C80.1641 241.284 82.7427 242.494 85.2355 242.494C88.2692 242.494 89.1001 241.452 89.1001 239.616C89.1001 236.573 83.5736 235.532 81.0379 234.113C78.0042 232.459 75.5938 230.527 75.5938 225.691C75.5938 219.44 81.0379 216.896 86.3995 216.896C89.2683 216.896 92.7174 217.69 95.1674 219.523L92.1766 224.484C90.8577 223.492 88.6022 222.734 86.3995 222.734C83.323 222.734 82.2448 224.484 82.2448 225.691C82.2448 228.443 86.1093 229.277 89.6409 230.822C92.5921 232.111 95.7511 234.199 95.7511 239.2C95.7511 244.952 91.6787 248.329 85.1102 248.329Z" fill="white"/>
<path d="M113.745 223.025V247.832H107.094V223.025H101.066V217.402H119.605V223.025H113.745Z" fill="white"/>
<path d="M141.295 247.829H134.938L125.006 217.399H131.822L137.724 236.828C137.971 237.619 138.179 238.535 138.179 238.535C138.179 238.535 138.469 237.579 138.677 236.828L144.54 217.399H151.188L141.295 247.829Z" fill="white"/>
<path d="M156.589 247.829V217.399H174.253V223.022H163.24V230.15H173.462V235.773H163.24V242.203H174.876V247.826L156.589 247.829Z" fill="white"/>
<path d="M191.211 247.829H182.021V217.399H191.211C199.854 217.399 207.003 222.738 207.003 232.575C207 242.62 199.27 247.829 191.211 247.829ZM191.211 223.022H188.672V242.206H191.211C196.863 242.206 200.144 237.702 200.144 232.575C200.141 227.236 196.527 223.026 191.211 223.026V223.022Z" fill="white"/>
</g>
<defs>
<clipPath id="clip0_85_155">
<rect width="207" height="288" fill="white"/>
</clipPath>
</defs>
</svg>
